# xmcd CD database file
#
# Track frame offsets:
#	150
#	12510
#	25955
#	41224
#	54674
#	68184
#	82289
#	95185
#	106434
#	120982
#	134870
#	147114
#	158616
#	169477
#	180953
#	191776
#	203357
#	212391
#
# Disc length: 3002 seconds
#
# Revision: 2
# Processed by: cddbd v1.5.2PL0 Copyright (c) Steve Scherf et al.
# Submitted via: CDex 1.51
#
DISCID=080bb812
DTITLE=Big Joe Turner - Story To Tell
DYEAR=2001
DGENRE=Blues
TTITLE0=Rebecca  [1944]
TTITLE1=It´s The Old Same Story  [1944]
TTITLE2=Little Bitty Gal´s Blues  [1947]
TTITLE3=S.k. Blues, Part 2  [1945]
TTITLE4=Watch Thar Jive  [1945]
TTITLE5=Doggin´ The Blues  [1945]
TTITLE6=Battle Of The Blues, Part 2  [1947]
TTITLE7=Morning Glory  [1947]
TTITLE8=Nobody In Mind  [1947]
TTITLE9=Back Breaking Blues  [1947]
TTITLE10=Empty Pocket Blues  [1947]
TTITLE11=Story To Tell  [1950]
TTITLE12=Jumpin´ Tonight  [1950]
TTITLE13=Lucille  [1950]
TTITLE14=Love Me Baby  [1950]
TTITLE15=Blues Jump The Rabbit  [1950]
TTITLE16=The Sun Is Shining  [1950]
TTITLE17=Battle Of The Blues, Part 1  [1947]
EXTD=YEAR: 2001
EXTT0=
EXTT1=
EXTT2=
EXTT3=
EXTT4=
EXTT5=
EXTT6=
EXTT7=
EXTT8=
EXTT9=
EXTT10=
EXTT11=
EXTT12=
EXTT13=
EXTT14=
EXTT15=
EXTT16=
EXTT17=
PLAYORDER=
